# Blender 4.4.0
# www.blender.org
mtllib Outer Crystal.mtl
o Cube.001
v 0.000000 3.069507 0.000000
v 0.000000 3.182221 0.000000
v 0.000000 -3.069507 0.000000
v 0.000000 -3.182221 0.000000
v 1.087288 0.000000 -1.087288
v 1.166988 0.000000 -1.166988
v -1.087288 0.000000 1.087288
v -1.166988 0.000000 1.166988
v 1.087288 0.000000 1.087288
v 1.166988 0.000000 1.166988
v -1.087288 0.000000 -1.087288
v -1.166988 0.000000 -1.166988
v 1.048511 0.053016 1.108021
v 0.000000 2.960824 0.059511
v -1.048511 0.053016 1.108021
v -1.108021 0.053016 1.048511
v -0.059511 2.960824 0.000000
v -1.108021 0.053016 -1.048511
v 1.108021 0.053016 -1.048511
v 0.059511 2.960824 0.000000
v 1.108021 0.053016 1.048511
v -1.048511 0.053016 -1.108021
v 0.000000 2.960824 -0.059511
v 1.048511 0.053016 -1.108021
v 0.000000 -2.960824 -0.059511
v -1.048511 -0.053016 -1.108021
v 1.048511 -0.053016 -1.108021
v 0.059511 -2.960824 0.000000
v 1.108021 -0.053016 -1.048511
v 1.108021 -0.053016 1.048511
v -0.059511 -2.960824 0.000000
v -1.108021 -0.053016 1.048511
v -1.108021 -0.053016 -1.048511
v 0.000000 -2.960824 0.059511
v 1.048511 -0.053016 1.108021
v -1.048511 -0.053016 1.108021
vn -0.6400 -0.4510 -0.6221
vn -0.3120 0.2225 0.9237
vn 0.6400 -0.4510 -0.6221
vn 0.3120 0.2225 0.9237
vn -0.0000 0.3642 -0.9313
vn -0.0000 0.7436 0.6686
vn 0.6221 -0.4510 -0.6400
vn -0.9237 0.2225 -0.3120
vn 0.6221 -0.4510 0.6400
vn -0.9237 0.2225 0.3120
vn 0.9313 0.3642 -0.0000
vn -0.6686 0.7436 -0.0000
vn -0.6221 -0.4510 0.6400
vn 0.9237 0.2225 0.3120
vn -0.6221 -0.4510 -0.6400
vn 0.9237 0.2225 -0.3120
vn -0.9313 0.3642 -0.0000
vn 0.6686 0.7436 -0.0000
vn 0.6400 -0.4510 0.6221
vn 0.3120 0.2225 -0.9237
vn -0.6400 -0.4510 0.6221
vn -0.3120 0.2225 -0.9237
vn -0.0000 0.3642 0.9313
vn -0.0000 0.7436 -0.6686
vn 0.6400 0.4510 0.6221
vn 0.3120 -0.2225 -0.9237
vn -0.0000 -0.3642 0.9313
vn -0.0000 -0.7436 -0.6686
vn -0.6400 0.4510 0.6221
vn -0.3120 -0.2225 -0.9237
vn -0.6221 0.4510 0.6400
vn 0.9237 -0.2225 0.3120
vn -0.9313 -0.3642 -0.0000
vn 0.6686 -0.7436 -0.0000
vn -0.6221 0.4510 -0.6400
vn 0.9237 -0.2225 -0.3120
vn 0.6221 0.4510 -0.6400
vn -0.9237 -0.2225 -0.3120
vn 0.9313 -0.3642 -0.0000
vn -0.6686 -0.7436 -0.0000
vn 0.6221 0.4510 0.6400
vn -0.9237 -0.2225 0.3120
vn -0.6400 0.4510 -0.6221
vn -0.3120 -0.2225 0.9237
vn -0.0000 -0.3642 -0.9313
vn -0.0000 -0.7436 0.6686
vn 0.6400 0.4510 -0.6221
vn 0.3120 -0.2225 0.9237
vt 0.500000 0.750000
vt 0.625000 1.000000
vt 0.500000 1.000000
vt 0.500000 0.000000
vt 0.625000 0.250000
vt 0.500000 0.250000
vt 0.500000 0.500000
vt 0.625000 0.750000
vt 0.625000 0.500000
vt 0.375000 0.250000
vt 0.375000 0.500000
vt 0.375000 0.000000
vt 0.375000 0.750000
s 0
usemtl Material
f 13/1/1 14/2/1 1/2/1 9/1/1
f 14/2/2 13/1/2 10/1/2 2/2/2
f 14/2/3 15/3/3 7/3/3 1/2/3
f 15/3/4 14/2/4 2/2/4 8/3/4
f 15/3/5 13/1/5 9/1/5 7/3/5
f 13/1/6 15/3/6 8/3/6 10/1/6
f 16/4/7 17/5/7 1/5/7 7/4/7
f 17/5/8 16/4/8 8/4/8 2/5/8
f 17/5/9 18/6/9 11/6/9 1/5/9
f 18/6/10 17/5/10 2/5/10 12/6/10
f 18/6/11 16/4/11 7/4/11 11/6/11
f 16/4/12 18/6/12 12/6/12 8/4/12
f 19/7/13 20/8/13 1/8/13 5/7/13
f 20/8/14 19/7/14 6/7/14 2/8/14
f 20/8/15 21/1/15 9/1/15 1/8/15
f 21/1/16 20/8/16 2/8/16 10/1/16
f 21/1/17 19/7/17 5/7/17 9/1/17
f 19/7/18 21/1/18 10/1/18 6/7/18
f 22/6/19 23/9/19 1/9/19 11/6/19
f 23/9/20 22/6/20 12/6/20 2/9/20
f 23/9/21 24/7/21 5/7/21 1/9/21
f 24/7/22 23/9/22 2/9/22 6/7/22
f 24/7/23 22/6/23 11/6/23 5/7/23
f 22/6/24 24/7/24 6/7/24 12/6/24
f 25/10/25 26/6/25 11/6/25 3/10/25
f 26/6/26 25/10/26 4/10/26 12/6/26
f 26/6/27 27/7/27 5/7/27 11/6/27
f 27/7/28 26/6/28 12/6/28 6/7/28
f 27/7/29 25/10/29 3/10/29 5/7/29
f 25/10/30 27/7/30 6/7/30 4/10/30
f 28/11/31 29/7/31 5/7/31 3/11/31
f 29/7/32 28/11/32 4/11/32 6/7/32
f 29/7/33 30/1/33 9/1/33 5/7/33
f 30/1/34 29/7/34 6/7/34 10/1/34
f 30/1/35 28/11/35 3/11/35 9/1/35
f 28/11/36 30/1/36 10/1/36 4/11/36
f 31/12/37 32/4/37 7/4/37 3/12/37
f 32/4/38 31/12/38 4/12/38 8/4/38
f 32/4/39 33/6/39 11/6/39 7/4/39
f 33/6/40 32/4/40 8/4/40 12/6/40
f 33/6/41 31/12/41 3/12/41 11/6/41
f 31/12/42 33/6/42 12/6/42 4/12/42
f 34/13/43 35/1/43 9/1/43 3/13/43
f 35/1/44 34/13/44 4/13/44 10/1/44
f 35/1/45 36/3/45 7/3/45 9/1/45
f 36/3/46 35/1/46 10/1/46 8/3/46
f 36/3/47 34/13/47 3/13/47 7/3/47
f 34/13/48 36/3/48 8/3/48 4/13/48
